<?xml version="1.0" encoding="UTF-8"?>
<svg id="Layer_1" xmlns="http://www.w3.org/2000/svg" version="1.1" viewBox="0 0 1080 1080">
  <!-- Generator: Adobe Illustrator 29.6.0, SVG Export Plug-In . SVG Version: 2.1.1 Build 207)  -->
  <defs>
    <style>
      .st0 {
        fill: #fff;
      }

      .st1 {
        fill: #eb0028;
      }
    </style>
  </defs>
  <path class="st1" d="M178.7,468.9v-74c12.3.4,25-.6,37.2,0,24.2,1.2,34.5,17.4,33.2,40.6-1.4,24.1-16.4,32.7-38.7,33.5s-21.1-.3-31.7,0ZM201.2,450h9.8c13.6,0,18.3-15.5,14-26.5-2.4-6-8.7-9.7-15.1-9.7h-8.7v36.3Z"/>
  <polygon class="st1" points="174.6 394.9 174.6 413.8 135.3 413.8 135.3 423 174.6 423 174.6 440.8 135.3 440.8 135.3 450 174.6 450 174.6 468.9 112.8 468.9 112.8 394.9 174.6 394.9"/>
  <path class="st1" d="M109.1,394.9v18.9h-20.2l-.6.6v54.2c-.4-.1-.8.4-.9.4h-21.1l-.6-.6v-54.6h-20.7v-18.3l.6-.6h63.5Z"/>
  <path class="st0" d="M334.9,494.1l25.5,63.3c6.6-21.3,16.3-41.5,24.2-62.3l.8-1h8.9l.6.6v70.9h-6.7v-62.2l-25.1,62-5.8.3-25.7-63v62.9h-6.7v-70.9l.6-.6h9.4Z"/>
  <path class="st0" d="M453.7,616.8c0,.2.4,1.1.7.9,3.4-10.7,19.4-13.8,26.2-4.6,1.2,1.6,1.8,3.6,2.8,5.3,7.3-16.6,33-13.6,33.5,5.7l-.2,38c-.4.6-5.5.6-6.2-.2l-.3-38.2c-1.6-13.9-22.5-13.3-24.7.2-1.8,11.2,1.2,25.9-.1,37.2,0,.5,0,1-.6,1.3h-5.6c-.5-.3-.5-.7-.6-1.3-1.4-11.8,1.2-26.3,0-38.4-2.1-13.2-23.6-12-24.7,3.6-.8,11,1.3,24.2,0,34.8,0,.5,0,1-.6,1.3h-5.6v-54.1h5.7c.3,2.6-.4,5.8,0,8.3Z"/>
  <path class="st0" d="M660.3,520.2c0,.1.6.6.7.6,3.7-10.3,19.2-13.5,26.1-4.4s1.7,3,2.4,4.6,0,.8.6.5,2.1-3.5,2.8-4.3c9.6-11.7,30.7-6.1,30.7,9.6v38.7h-6.7v-39.4c0-.6-1.5-3.7-1.9-4.4-3.9-5.8-13.3-6.1-18.5-1.9s-4.4,5.4-4.4,7.4v38.3h-6.7v-39.4c0-.4-1.4-3.6-1.8-4.2-6.1-9.6-23-3.8-23,6.4v37.2h-6.7v-53.1l.6-.6h5.7c.4,2.3-.5,6.3,0,8.3Z"/>
  <path class="st0" d="M577.4,520.8c.9.2.6-.1.8-.5,2.3-3.6,2.5-4.9,6.6-7.1,8.7-4.8,19.6-1.4,21.9,8.7,1.4-.9,1.7-2.7,2.8-4.1,9.4-12.3,31.3-7,31.3,9.1v38.7h-6.7v-39.1c0-.7-1.4-4-1.9-4.8-3.8-5.7-13.3-6.2-18.5-1.9s-4.4,5.3-4.4,7.4v38.3h-6.7v-39.1c0-.7-1.4-4-1.9-4.8-4.6-7-16.1-5.8-20.6.7-.6.8-2.3,4.7-2.3,5.5v37.6h-6.7v-53.1l.6-.6h5.7v8.9Z"/>
  <path class="st0" d="M216.4,520.2c0,.1.6.6.7.6,3.9-10.4,19.4-13.5,26.2-4.2,1.3,1.7,1.7,3.8,3,5.3,4.7-13.5,26-14.9,31.7-1.5s1.7,5.1,1.7,6.5v38.7h-6.7v-39.4c0-.5-1.2-3.3-1.6-3.9-4.4-7.2-16.1-6.7-20.9,0s-2.3,4.1-2.3,5.1v38.3h-6.7v-39.4c0-.4-1.4-3.6-1.8-4.2-6.1-9.6-23-3.8-23,6.4v37.2h-6.7v-53.1l.6-.6h5.7c.4,2.3-.5,6.3,0,8.3Z"/>
  <path class="st0" d="M82.4,520.8c.6.7,1.7-2.4,1.9-2.7,6.9-10.4,24.5-9.3,27.3,3.8.4.4,2.1-3.3,2.4-3.7,9.4-12.8,31.6-7.7,31.6,9v38.3h-6.7v-39.1c0-.7-1.4-4-1.9-4.8-3.6-5.5-13.1-6.2-18.1-2.3-1.9,1.4-4.8,5.4-4.8,7.8v38.3h-6.7v-38.7c0-4.5-5.1-9.2-9.5-9.8-9.4-1.2-15.1,5.4-15.7,14.2-.7,9.9-.3,22.6,0,32.6,0,.6.1,1.1.4,1.6h-6.7v-53.1l.6-.6h5.7v8.9Z"/>
  <path class="st1" d="M269,395.2l5.6,10.7,6.3-10.7h16.7l-14.8,22,15.5,23.1h-16.7l-6.5-11.1c-.5-.1-.6.3-.9.6-2.2,2.9-4.1,7.3-6,10.5h-16.7l15.5-23.1-14.8-22h16.7Z"/>
  <path class="st0" d="M99.8,608.9h-6.1c-.9-1.9-1-3.8-2.1-5.7-7.9-13.7-37.2-6.8-31.1,9.7,4.6,12.6,37.4,8.4,40.3,27.1,4.5,29.5-47.4,32.4-49.4,4.5h7c1.1,17.7,34.4,17,35.9.2,1.1-12.5-15.1-14.1-23.8-17-8.1-2.7-16.6-7.2-17.3-16.7-2-27,45.9-28.7,46.6-2Z"/>
  <path class="st0" d="M261,590.7l.2,71.7-5.8-.2c-.6-1.6.5-9-.7-9.6l-3.1,4.6c-7.4,9.4-21.6,8.1-29.1-.5s-9-32.2.4-42.2c9.1-9.7,26.4-8.8,31.3,4.4.1.1.7-.5.7-.6v-27l.6-.6h5.6ZM238.2,613.8c-20.5.8-20.6,39.7-3,43.5,25.4,5.5,26.7-44.4,3-43.5Z"/>
  <path class="st0" d="M831,494.1v71.5h-6.3v-9.6c-1.5-.3-1.6,1.8-2.4,2.9-5.1,7.4-12.5,9.5-21.1,7.1-23.1-6.6-21.4-56.5,7.8-54.8,7.8.4,10.7,4.3,14.5,10.3s0,.7.8.5v-27.2l.6-.6h6.1ZM806.1,517.1c-19.9,2.7-19.6,46.6,5,43.6,18.7-2.3,18.6-46.8-5-43.6Z"/>
  <path class="st0" d="M904.7,521.9c.9.2.6-.2.8-.5,4-5.8,6.3-9.6,14.2-10.2,30.1-2.5,32,51.2,5.4,55.4-9.1,1.4-16.1-2.6-20.1-10.8l-.7.4v9.4h-6.3v-71.5h6.1l.6.6v27.2ZM918.7,517.2c-19.3,2.3-18.1,40.6-1.4,43.4,26.6,4.5,26.2-46.4,1.4-43.4Z"/>
  <path class="st0" d="M640.7,590.7v48.3c0,8.9,8.6,17.2,17.2,18,13,1.2,22.9-5.2,23.9-18.7,1.1-15-.8-31.2,0-46.3l.6-1.3h5.6l.6,1.3c-1.2,15.9,1.5,33.9,0,49.6-2.3,23-35.1,29.3-48.8,12.6s-5.6-9.3-5.6-12.9v-50l.6-.6h6.1Z"/>
  <path class="st0" d="M833.8,637.4c-.4.3-.4.3-.4.8,0,7.3,4.2,16,11.5,18.5,8.4,2.9,17,.3,21.1-7.7l5.8,1.8c-3.3,11.1-17.1,14.8-27.4,12-28.2-7.6-21.3-62.3,12.2-54,8.5,2.1,16.7,12.2,16.7,21v7.6h-39.4ZM866.6,631.8c-.5-24.3-32.1-23.6-33,0h33Z"/>
  <path class="st0" d="M557.8,565.6h-6.7v-8.5c-2.1,3-4.3,6-7.7,7.7-9.4,4.9-25.5,1.2-26.8-10.9-2.1-19.6,16.3-17.1,29.3-19.9,4.5-1,5.5-2.1,5.1-6.8-1.1-13.9-22-12.9-26.9-2-.5,0-4.9-1.3-5.4-1.6s-.7-.3-.6-.8c6.1-15.6,35.5-16.2,39,1.6.1.6.5,2.8.5,3.2v37.9ZM551.1,537.8c-7.7,4-28.2.6-28.2,13.1,0,11.3,15.5,12.4,22.6,6.6,2.3-1.9,5.6-7,5.6-10v-9.8Z"/>
  <path class="st0" d="M427.8,662.6v-8.5c-1.5.5-2.2,2.6-3.3,3.9-9,9.8-30.2,6.7-31.5-7.8-1.8-19.1,17-16.7,29.7-19.6,4.4-1,5.1-2.3,4.7-6.8-.9-11.9-17.1-12.8-24.1-5.9-.9.9-2.3,3.8-3.1,3.9s-4.9-1.3-5.4-1.7c-.8-.7,1.4-3.8,1.9-4.4,8.7-11.3,33.5-10.8,36.8,5,2.5,11.7-.8,28.3.6,40.6l-.6,1.3h-5.7ZM427.5,634.4c-7.7,4.3-28.3.6-28.2,13.5.2,11.5,16.8,12.3,23.7,5.5,1.6-1.6,4.5-6.7,4.5-8.8v-10.2Z"/>
  <path class="st0" d="M190.5,557.6c0-.1-.6-.6-.7-.6-5.6,13-27.5,13.4-33,.3-1.6-3.7-1.7-10,.3-13.5,4.9-8.9,19.5-8,28-9.8,4.5-.9,5.4-2.1,5.1-6.8-.7-10.2-12.2-12.2-20.1-8.6-3.3,1.5-4.9,3.6-6.8,6.6l-5.4-1.4c-1.6-.9,2.3-5.8,3.2-6.7,10.6-10.3,35.7-7.2,35.7,10.6v37.9h-6.3c-.4-2.2.5-6,0-8ZM190.1,537.8c-7.7,4-28.1.6-28.2,13.1,0,11.1,15.4,12.4,22.4,6.8,2.2-1.8,5.7-7,5.7-9.8v-10.2Z"/>
  <path class="st0" d="M774.7,565.6h-6.3v-8c0,0-.6-.7-.7-.6-6.1,14.6-32.6,12.6-34.1-3.9-1.7-18.7,17-16.6,29.4-19.2,4.8-1,5.5-2.2,5.1-7.1-1-11.6-16.9-12.4-23.9-5.7-1.2,1.2-1.9,2.8-3,4.1-.8.3-5.9-1.6-6-2.4,5.8-14.3,31.9-16.2,38.1-1.6.6,1.5,1.4,4.4,1.4,6v38.3ZM768.1,537.8c-7.6,3.9-28.2.7-28.2,13.1s15.3,12.4,22.4,6.8c2.3-1.8,5.7-6.9,5.7-9.8v-10.2Z"/>
  <path class="st0" d="M143.9,662.6v-8.5c-1.3.4-2,2.4-3,3.5-10.4,12.2-33.7,6.1-31.8-12.6,1.4-14.4,22.1-11.7,31.5-14.8,4.4-1.5,3.7-5.8,2.4-9.4-3-8.4-15.5-8.7-21.8-4.1-1.9,1.4-3.1,3.8-4.8,5.2l-5.3-1.5c0-3.4,3.8-7,6.5-8.8,12.2-7.8,31.6-3.7,32.7,13.1.8,11.9-.7,24.7,0,36.7l-.6,1.3h-5.7ZM143.9,643.1c.2-2.3,0-5.4,0-7.8s-.4-1-.5-.9c-7,4-24,1.1-27.3,10.1-2.4,6.5,2.5,12.3,8.9,13.2,9.7,1.3,17.9-4.7,19-14.5Z"/>
  <path class="st0" d="M471.5,520.4c2.7-3.4,5.2-6.5,9.5-8,15.3-5.4,24.8,4.6,25.6,19.3.6,11.1-.5,22.7,0,33.9h-6.7v-36.5c0-7.2-7.6-12.3-14.3-12-6.3.2-14.2,5.7-14.2,12.4v36.1h-6.7v-70.9l.6-.6h5.6l.6.6v25.7Z"/>
  <path class="st0" d="M428.1,511.2c33.8-3.2,35,55.7,2.4,55.8-30.7,0-32.1-53-2.4-55.8ZM428.5,517.2c-21.2,2.5-20.9,46.7,5,43.5s19.1-46.4-5-43.5Z"/>
  <path class="st0" d="M1012.3,608.5l.8,1c5.3,15.5,11.9,30.5,16.2,46.4l17.8-47.4h5.9l.5.9-25.3,65.4c-3.4,7-11.8,10.1-18.9,7l1.4-5.6c10.4,3.6,13.2-5.7,15.5-13.5l-20.2-53.1c-.3-.4.2-1.1.4-1.1h5.9Z"/>
  <path class="st0" d="M199,653.7c-.5-.6-2.3,2.7-2.6,3.1-6.9,8.4-22,8.7-28.8,0-2.9-3.7-3.9-8.3-4.2-12.9-.7-11.1.5-22.9,0-34.1.4-2.2,4.7-1.2,6.3-1.1.4.3.3.7.4,1.1,1.3,10.6-.9,23.9,0,34.8.9,10.8,11.6,15.5,21,11,3.2-1.6,7.5-7,7.5-10.6v-36.5h6.1l.6.6v52.9c-1.4.9-4.9.9-6.3,0v-8.3Z"/>
  <path class="st0" d="M744.4,662.2l-6.3.2-.3-.4v-35.9c-1.5-16.8-27.2-16.5-28.6,2.2v33.7s-.3.4-.3.4l-5.8-.2v-53.4c.4-.5,5.5-.7,6.1.2v8.7l3.5-4.8c10.7-10.3,31.7-3.9,31.7,12.1v37.2Z"/>
  <path class="st0" d="M995.8,565.6h-6.3v-36.1c0-7.4-7.4-12.6-14.3-12.4-6.3.2-14.2,5.7-14.2,12.4v36.1h-6.7v-53.1l.6-.6h5.7v8.3c0,0,.6.7.7.6,5.8-13,26.7-12.8,32.7.1.5,1.1,1.8,5,1.8,6v38.7Z"/>
  <path class="st0" d="M913.6,649.6l6.1-1.1c1,1.3,1.1,2.7,2.2,4.1,7,9.9,29.1,4.4,24.3-7.6-2.5-6.3-16.6-6.7-22.6-9.6-14.1-6.8-8.7-25.1,6-27.2s19.5,1.5,22.9,11.9c0,1-4.4,1.6-5.5,1.8-2.4-4.2-5-7.7-10.2-8.3s-15.5,2-14.6,10.5c.8,7.7,15.3,8.2,21.1,10.4,15.5,5.7,12.6,23.7-2.3,28-10.9,3.1-25-.5-27.3-13Z"/>
  <path class="st0" d="M336.9,616.8c-2.7,2.4-3.5,6.5-1.7,9.7,4.9,8.9,29,3.5,30.4,19.6s-36.5,23.9-39.6,3.5l6.1-1.1c2.5,8.6,10.7,10.7,18.7,8.7s10.8-7.2,7-13.2c-4.8-7.7-25.3-3.5-29.4-16.2-6.6-20.5,27.7-27,35.2-10.4,2.2,5-.6,3.2-4.4,4.8-1.8-3.2-3.3-6.1-6.9-7.5-4.8-1.9-11.5-1.3-15.4,2.2Z"/>
  <path class="st0" d="M591.8,621.8l-6.3,1.4c-2.9-8.6-13.9-11.7-21.6-7.7-13.5,7.1-12.8,36.4,2.4,41.2s16.6-1.1,19.8-9.1c.5,0,4.9,1.3,5.4,1.6s.6.2.6.8-2,3.7-2.4,4.3c-6.4,9.1-19.9,11.7-29.5,6.2-16.1-9.1-16.5-36.7-2.7-48.1,10.8-8.9,30.2-4.5,34.3,9.3Z"/>
  <path class="st0" d="M779.4,608.5c.3,0,.8.4.9.7l17,46.7,16.7-47.4h6.7l-20,53.5c-.6.8-4.9.8-6.1.6s-1.3-.8-1.8-1.9c-7.4-15.8-11.9-34.3-19.3-50.3l-.2-1.9h6.1Z"/>
  <path class="st0" d="M991.3,614.4c-.2.7-.3,1.3-.4,2-.7,8.9-.6,23.7,0,32.6.5,7.6,3.5,8.7,10.8,7.7l1.4,5.2c-.3,1.1-6.8,1.1-7.9,1-5-.4-10.5-4.9-10.5-10.2v-38.3h-7.6c-.9-1.3-.9-4.6,0-5.9h7.6v-12.6h6.1l.5.8c-.1,3-.8,8-.3,10.8s.2.7.6.9h10c1.2,0,1.4,5.2.4,5.9h-10.6Z"/>
  <path class="st0" d="M313.8,662.2c-.4-.1-.8.4-.9.4h-5.6l-.6-.6v-70.7l.6-.6h5.9l.6.6v70.9Z"/>
  <path class="st0" d="M61.3,494.1v71.5h-7v-70.5c0-.1.5-.6.4-.9h6.7Z"/>
  <polygon class="st0" points="382.7 590.7 382.5 662.6 376.9 662.6 376.9 590.7 382.7 590.7"/>
  <rect class="st0" x="876.6" y="494.1" width="6.7" height="71.5"/>
  <path class="st0" d="M908.4,608.1v6.3h-7.2c-.2,0-3.3,1.2-3.8,1.4-4.1,2-6.8,6.5-7.2,11-.9,10.9,1.3,23.9,0,34.5,0,.5,0,1-.6,1.3h-5.6l-.5-53.1c.5-1.7,4.7-.8,6.2-.9,1.1.7-.3,7.2.6,8.5,1.6-2.9,3.1-5.2,6.1-6.9s4.4-2,5-2h6.8Z"/>
  <rect class="st0" x="530.9" y="608.5" width="5.6" height="54.1"/>
  <rect class="st0" x="758.3" y="608.5" width="5.6" height="54.1"/>
  <rect class="st0" x="964.5" y="608.5" width="5.6" height="54.1"/>
  <path class="st0" d="M757.5,597.3c-3.6-4,1.6-10,6.4-6.9,6.1,3.9-2,11.8-6.4,6.9Z"/>
  <path class="st0" d="M963.7,597.3c-3.7-4.1,1.9-10,6.4-6.9s-2.1,11.7-6.4,6.9Z"/>
  <path class="st0" d="M537.3,590.9c4.6,4.6-3.3,11.3-7.3,6s3.5-9.8,7.3-6Z"/>
</svg>