<?xml version="1.0" encoding="UTF-8"?>
<svg id="Layer_1" xmlns="http://www.w3.org/2000/svg" version="1.1" viewBox="0 0 1080 1080">
  <!-- Generator: Adobe Illustrator 29.6.0, SVG Export Plug-In . SVG Version: 2.1.1 Build 207)  -->
  <defs>
    <style>
      .st0 {
        fill: #fff;
      }
    </style>
  </defs>
  <path class="st0" d="M540.8,440.1l-27.3,66.1s-57.5,32.9-58.1,33c-.5.1-1.1,256.3-1.1,256.3l80.9-46.7v-25.1c.3-.2,28.5-60.4,28.5-60.4l1.1,68.3,69.5-38.7-1.1-222.1,28.5-37.6-1.1,243.8-22.8,63.8-210.7,121.9,2.3-213-150.4,86.6v-215.3l85.4-50.1s-22.8,63.8-22.8,63.8-33,18-33,18.2v116.2l118.5-67.2c.6-.3,1.1-100.2,1.1-100.2l26.2-53.5v42.1l59.2-35.3v-200.5l29.6-59.2-2.3,244.9Z"/>
  <path class="st0" d="M391.6,832l-4.6,53.5-108.2,62.6v-51.3l27.3-15.9-10.9-14.7c-.4-.5,20-46.8,20-46.8-.4-.3,72.9-42.1,72.9-42.1,0,0-14.6,30.6-14.8,30.8,0,0-51,33.8-50.4,34.5l20.8,16.7,47.8-27.3Z"/>
  <polygon class="st0" points="440.6 900.3 456.5 869.6 537.4 822.9 526 851.3 440.6 900.3"/>
  <path class="st0" d="M659.4,728.7l24.9-64.2c-.2.1,26.4-16,26.4-16,.4-.3,1-190.1,1-190.1,0-.2,27.3-54.7,27.3-54.7l.2,259.6s-15.9,28.5-17.3,29-62.5,35.9-62.5,36.4Z"/>
  <path class="st0" d="M605,493.9l-2.5,29.4-59.4,34.4v-28.1l15-8.8-6-8.1c-.2-.3,11-25.7,11-25.7-.2-.2,40-23.1,40-23.1,0,0-8,16.8-8.1,16.9,0,0-28,18.5-27.7,19l11.4,9.2,26.3-15Z"/>
  <path class="st0" d="M535.3,494.9l24.9-64.2c-.2.1,26.4-16,26.4-16,.4-.3,1-190.1,1-190.1,0-.2,27.3-54.7,27.3-54.7l.2,259.6s-15.9,28.5-17.3,29-62.5,35.9-62.5,36.4Z"/>
</svg>